<?xml version="1.0" encoding="iso-8859-1"?>
<!-- Generator: Adobe Illustrator 19.0.0, SVG Export Plug-In . SVG Version: 6.00 Build 0)  -->
<svg version="1.1" id="Capa_1" xmlns="http://www.w3.org/2000/svg" xmlns:xlink="http://www.w3.org/1999/xlink" x="0px" y="0px"
	 viewBox="0 0 480 480" style="enable-background:new 0 0 480 480;" xml:space="preserve">
<rect x="80" y="96" style="fill:#FFFFFF;" width="56" height="48"/>
<rect x="184" y="280" style="fill:#FED27C;" width="32" height="16"/>
<rect x="80" y="48" style="fill:#FFFFFF;" width="56" height="32"/>
<g>
	<rect x="112" y="344" style="fill:#FED27C;" width="32" height="16"/>
	<rect x="184" y="344" style="fill:#FED27C;" width="32" height="80"/>
	<rect x="112" y="408" style="fill:#FED27C;" width="32" height="16"/>
</g>
<g>
	<rect x="224" y="48" style="fill:#FFFFFF;" width="56" height="32"/>
	<path style="fill:#FFFFFF;" d="M224,144.808c18.232,3.72,32,19.872,32,39.192v24h24V96h-56V144.808z"/>
	<polygon style="fill:#FFFFFF;" points="336,452.688 372.688,416 336,416 	"/>
	<path style="fill:#FFFFFF;" d="M64,40c0-4.416,3.576-8,8-8h288c4.424,0,8,3.584,8,8v176c0,4.416-3.576,8-8,8H256v216
		c0,2.544-0.296,5.008-0.752,7.416c-0.144,0.768-0.376,1.488-0.56,2.24c-0.408,1.632-0.888,3.232-1.488,4.784
		c-0.312,0.8-0.648,1.568-1.008,2.336c-0.68,1.464-1.448,2.864-2.296,4.224c-0.424,0.68-0.816,1.36-1.272,2.008
		c-0.224,0.32-0.4,0.68-0.632,0.992H320v-56c0-4.416,3.576-8,8-8h56V16H48v128h16V40z"/>
	<rect x="296" y="48" style="fill:#FFFFFF;" width="56" height="32"/>
	<rect x="152" y="48" style="fill:#FFFFFF;" width="56" height="32"/>
	<rect x="296" y="96" style="fill:#FFFFFF;" width="56" height="112"/>
	<rect x="152" y="96" style="fill:#FFFFFF;" width="56" height="48"/>
</g>
<g>
	<rect x="48" y="200" style="fill:#FED27C;" width="160" height="32"/>
	<rect x="40" y="344" style="fill:#FED27C;" width="32" height="16"/>
	<rect x="40" y="408" style="fill:#FED27C;" width="32" height="16"/>
	<rect x="40" y="280" style="fill:#FED27C;" width="32" height="16"/>
</g>
<path style="fill:#DD763E;" d="M40,464h176c13.232,0,24-10.768,24-24V216v-32c0-13.232-10.768-24-24-24H72H40
	c-13.232,0-24,10.768-24,24v256C16,453.232,26.768,464,40,464z M160,432c0,4.416-3.576,8-8,8h-48c-4.424,0-8-3.584-8-8v-32
	c0-4.416,3.576-8,8-8h48c4.424,0,8,3.584,8,8V432z M160,368c0,4.416-3.576,8-8,8h-48c-4.424,0-8-3.584-8-8v-32c0-4.416,3.576-8,8-8
	h48c4.424,0,8,3.584,8,8V368z M160,304c0,4.416-3.576,8-8,8h-48c-4.424,0-8-3.584-8-8v-32c0-4.416,3.576-8,8-8h48
	c4.424,0,8,3.584,8,8V304z M232,432c0,4.416-3.576,8-8,8h-48c-4.424,0-8-3.584-8-8v-96c0-4.416,3.576-8,8-8h48c4.424,0,8,3.584,8,8
	V432z M232,272v32c0,4.416-3.576,8-8,8h-48c-4.424,0-8-3.584-8-8v-32c0-4.416,3.576-8,8-8h48C228.424,264,232,267.584,232,272z
	 M32,192c0-4.416,3.576-8,8-8h176c4.424,0,8,3.584,8,8v48c0,4.416-3.576,8-8,8H40c-4.424,0-8-3.584-8-8V192z M24,272
	c0-4.416,3.576-8,8-8h48c4.424,0,8,3.584,8,8v32c0,4.416-3.576,8-8,8H32c-4.424,0-8-3.584-8-8V272z M24,336c0-4.416,3.576-8,8-8h48
	c4.424,0,8,3.584,8,8v32c0,4.416-3.576,8-8,8H32c-4.424,0-8-3.584-8-8V336z M24,400c0-4.416,3.576-8,8-8h48c4.424,0,8,3.584,8,8v32
	c0,4.416-3.576,8-8,8H32c-4.424,0-8-3.584-8-8V400z"/>
<rect x="112" y="280" style="fill:#FED27C;" width="32" height="16"/>
<rect x="432" y="400" style="fill:#DD763E;" width="32" height="16"/>
<path style="fill:#FFFFFF;" d="M432,448c0,8.824,7.176,16,16,16s16-7.176,16-16v-16h-32V448z"/>
<rect x="432" y="96" style="fill:#FED27C;" width="32" height="288"/>
<polygon style="fill:#DD763E;" points="432,74.664 432,80 464,80 464,74.664 448,53.336 "/>
<g>
	<path style="fill:#232323;" d="M40,480h176h112c1.04,0,2.08-0.208,3.048-0.608c0.968-0.4,1.856-0.984,2.608-1.736l64-64
		c0.688-0.688,1.176-1.496,1.568-2.344c0.112-0.24,0.176-0.488,0.264-0.744c0.232-0.672,0.368-1.36,0.416-2.072
		C399.912,408.32,400,408.168,400,408V8c0-4.416-3.576-8-8-8H40c-4.424,0-8,3.584-8,8v136.808C13.768,148.528,0,164.688,0,184v256
		C0,462.056,17.944,480,40,480z M352,80h-56V48h56V80z M352,96v112h-56V96H352z M280,80h-56V48h56V80z M208,80h-56V48h56V80z
		 M136,80H80V48h56V80z M80,96h56v48H80V96z M152,96h56v48h-56V96z M224,96h56v112h-24v-24c0-19.312-13.768-35.472-32-39.192V96z
		 M336,452.688V416h36.688L336,452.688z M48,16h336v384h-56c-4.424,0-8,3.584-8,8v56h-72.016c0.232-0.312,0.408-0.672,0.632-0.992
		c0.456-0.648,0.856-1.328,1.272-2.008c0.848-1.36,1.616-2.76,2.296-4.224c0.36-0.768,0.704-1.544,1.008-2.336
		c0.6-1.552,1.08-3.144,1.488-4.784c0.184-0.752,0.416-1.472,0.56-2.24c0.464-2.408,0.76-4.872,0.76-7.416V224h104
		c4.424,0,8-3.584,8-8V40c0-4.416-3.576-8-8-8H72c-4.424,0-8,3.584-8,8v104H48V16z M16,184c0-13.232,10.768-24,24-24h32h144
		c13.232,0,24,10.768,24,24v32v224c0,13.232-10.768,24-24,24H40c-13.232,0-24-10.768-24-24V184z"/>
	<path style="fill:#232323;" d="M478.4,67.2l-24-32c-3.016-4.032-9.784-4.032-12.8,0l-24,32c-1.04,1.384-1.6,3.072-1.6,4.8v376
		c0,17.648,14.352,32,32,32s32-14.352,32-32V72C480,70.272,479.44,68.584,478.4,67.2z M448,53.336l16,21.336V80h-32v-5.336
		L448,53.336z M432,384V96h32v288H432z M464,400v16h-32v-16H464z M448,464c-8.824,0-16-7.176-16-16v-16h32v16
		C464,456.824,456.824,464,448,464z"/>
	<path style="fill:#232323;" d="M40,248h176c4.424,0,8-3.584,8-8v-48c0-4.416-3.576-8-8-8H40c-4.424,0-8,3.584-8,8v48
		C32,244.416,35.576,248,40,248z M48,200h160v32H48V200z"/>
	<path style="fill:#232323;" d="M224,328h-48c-4.424,0-8,3.584-8,8v96c0,4.416,3.576,8,8,8h48c4.424,0,8-3.584,8-8v-96
		C232,331.584,228.424,328,224,328z M216,424h-32v-80h32V424z"/>
	<path style="fill:#232323;" d="M176,264c-4.424,0-8,3.584-8,8v32c0,4.416,3.576,8,8,8h48c4.424,0,8-3.584,8-8v-32
		c0-4.416-3.576-8-8-8H176z M216,296h-32v-16h32V296z"/>
	<path style="fill:#232323;" d="M152,328h-48c-4.424,0-8,3.584-8,8v32c0,4.416,3.576,8,8,8h48c4.424,0,8-3.584,8-8v-32
		C160,331.584,156.424,328,152,328z M144,360h-32v-16h32V360z"/>
	<path style="fill:#232323;" d="M152,264h-48c-4.424,0-8,3.584-8,8v32c0,4.416,3.576,8,8,8h48c4.424,0,8-3.584,8-8v-32
		C160,267.584,156.424,264,152,264z M144,296h-32v-16h32V296z"/>
	<path style="fill:#232323;" d="M32,376h48c4.424,0,8-3.584,8-8v-32c0-4.416-3.576-8-8-8H32c-4.424,0-8,3.584-8,8v32
		C24,372.416,27.576,376,32,376z M40,344h32v16H40V344z"/>
	<path style="fill:#232323;" d="M32,312h48c4.424,0,8-3.584,8-8v-32c0-4.416-3.576-8-8-8H32c-4.424,0-8,3.584-8,8v32
		C24,308.416,27.576,312,32,312z M40,280h32v16H40V280z"/>
	<path style="fill:#232323;" d="M152,392h-48c-4.424,0-8,3.584-8,8v32c0,4.416,3.576,8,8,8h48c4.424,0,8-3.584,8-8v-32
		C160,395.584,156.424,392,152,392z M144,424h-32v-16h32V424z"/>
	<path style="fill:#232323;" d="M32,440h48c4.424,0,8-3.584,8-8v-32c0-4.416-3.576-8-8-8H32c-4.424,0-8,3.584-8,8v32
		C24,436.416,27.576,440,32,440z M40,408h32v16H40V408z"/>
</g>
<g>
</g>
<g>
</g>
<g>
</g>
<g>
</g>
<g>
</g>
<g>
</g>
<g>
</g>
<g>
</g>
<g>
</g>
<g>
</g>
<g>
</g>
<g>
</g>
<g>
</g>
<g>
</g>
<g>
</g>
</svg>
