<?xml version="1.0"?>
<svg xmlns="http://www.w3.org/2000/svg" viewBox="0 0 64 64" width="512" height="512"><g id="Contacts"><path d="M57,2H13A5.006,5.006,0,0,0,8,7v3H6a4,4,0,0,0,0,8H8v4H6a4,4,0,0,0,0,8H8v5H6a4,4,0,0,0,0,8H8v4H6a4,4,0,0,0,0,8H8v2a5.006,5.006,0,0,0,5,5H57a5.006,5.006,0,0,0,5-5V7A5.006,5.006,0,0,0,57,2ZM6,16a2,2,0,0,1,0-4h6a2,2,0,0,1,0,4ZM4,26a2,2,0,0,1,2-2h6a2,2,0,0,1,0,4H6A2,2,0,0,1,4,26ZM4,39a2,2,0,0,1,2-2h6a2,2,0,0,1,0,4H6A2,2,0,0,1,4,39ZM4,51a2,2,0,0,1,2-2h6a2,2,0,0,1,0,4H6A2,2,0,0,1,4,51Zm16,9H13a3,3,0,0,1-3-3V55h2a4,4,0,0,0,0-8H10V43h2a4,4,0,0,0,0-8H10V30h2a4,4,0,0,0,0-8H10V18h2a4,4,0,0,0,0-8H10V7a3,3,0,0,1,3-3h7Zm40-3a3,3,0,0,1-3,3H22V4H57a3,3,0,0,1,3,3Z"/><path d="M41,17A15,15,0,1,0,56,32,15.017,15.017,0,0,0,41,17ZM33,42.226V38a5.006,5.006,0,0,1,5-5h6a5.006,5.006,0,0,1,5,5v4.226a12.923,12.923,0,0,1-16,0ZM41,31a4,4,0,1,1,4-4A4,4,0,0,1,41,31Zm10,9.3V38a7.01,7.01,0,0,0-5.66-6.868,6,6,0,1,0-8.68,0A7.01,7.01,0,0,0,31,38v2.3a13,13,0,1,1,20,0Z"/></g></svg>
