<svg height="512" viewBox="0 0 64 64" width="512" xmlns="http://www.w3.org/2000/svg"><g id="Contacts"><path d="m9 54v3a4 4 0 0 0 4 4h8v-58h-8a4 4 0 0 0 -4 4z" fill="#d80027"/><path d="m61 7v50a4 4 0 0 1 -4 4h-36v-58h36a4 4 0 0 1 4 4z" fill="#d1e7f8"/><g fill="#ffcd00"><circle cx="41" cy="32" r="14"/><path d="m15 14a3 3 0 0 0 -3-3h-6a3 3 0 0 0 0 6h6a3 3 0 0 0 3-3z"/><path d="m15 26a3 3 0 0 0 -3-3h-6a3 3 0 0 0 0 6h6a3 3 0 0 0 3-3z"/><path d="m15 39a3 3 0 0 0 -3-3h-6a3 3 0 0 0 0 6h6a3 3 0 0 0 3-3z"/><path d="m15 51a3 3 0 0 0 -3-3h-6a3 3 0 0 0 0 6h6a3 3 0 0 0 3-3z"/></g><circle cx="41" cy="27" fill="none" r="5"/><path d="m44 32h-6a6 6 0 0 0 -6 6v4.717a13.978 13.978 0 0 0 18 0v-4.717a6 6 0 0 0 -6-6z" fill="#006df0"/><circle cx="41" cy="27" fill="#006df0" r="5"/><path d="m27 61h30a4 4 0 0 0 4-4v-30a33.98 33.98 0 0 1 -34 34z" fill="#bddbff"/><path d="m57 2h-44a5.006 5.006 0 0 0 -5 5v3h-2a4 4 0 0 0 0 8h2v4h-2a4 4 0 0 0 0 8h2v5h-2a4 4 0 0 0 0 8h2v4h-2a4 4 0 0 0 0 8h2v2a5.006 5.006 0 0 0 5 5h44a5.006 5.006 0 0 0 5-5v-50a5.006 5.006 0 0 0 -5-5zm-51 14a2 2 0 0 1 0-4h6a2 2 0 0 1 0 4zm-2 10a2 2 0 0 1 2-2h6a2 2 0 0 1 0 4h-6a2 2 0 0 1 -2-2zm0 13a2 2 0 0 1 2-2h6a2 2 0 0 1 0 4h-6a2 2 0 0 1 -2-2zm0 12a2 2 0 0 1 2-2h6a2 2 0 0 1 0 4h-6a2 2 0 0 1 -2-2zm16 9h-7a3 3 0 0 1 -3-3v-2h2a4 4 0 0 0 0-8h-2v-4h2a4 4 0 0 0 0-8h-2v-5h2a4 4 0 0 0 0-8h-2v-4h2a4 4 0 0 0 0-8h-2v-3a3 3 0 0 1 3-3h7zm40-3a3 3 0 0 1 -3 3h-35v-56h35a3 3 0 0 1 3 3z" fill="#231f20"/><path d="m41 17a15 15 0 1 0 15 15 15.017 15.017 0 0 0 -15-15zm-8 25.226v-4.226a5.006 5.006 0 0 1 5-5h6a5.006 5.006 0 0 1 5 5v4.226a12.923 12.923 0 0 1 -16 0zm8-11.226a4 4 0 1 1 4-4 4 4 0 0 1 -4 4zm10 9.3v-2.3a7.01 7.01 0 0 0 -5.66-6.868 6 6 0 1 0 -8.68 0 7.01 7.01 0 0 0 -5.66 6.868v2.3a13 13 0 1 1 20 0z" fill="#231f20"/></g></svg>