<svg height="512" viewBox="0 0 64 64" width="512" xmlns="http://www.w3.org/2000/svg"><g id="Bill"><path d="m8 50h40v-47h-30l-10 10z" fill="#ffeb99"/><path d="m18 13v-10l-10 10z" fill="#5eac24"/><circle cx="31" cy="16" fill="#ff5023" r="9"/><path d="m14 28h6v6h-6z" fill="#ff9811"/><path d="m14 38h6v6h-6z" fill="#ff9811"/><path d="m20.5 50h27.5v-29c0 13.919-11.662 25.6-27.5 29z" fill="#ffde55"/><path d="m53.657 34.827-5.657-5.657v11.08l-4.35-4.35a3.005 3.005 0 0 0 -4.25 4.25l5.25 5.25a6.244 6.244 0 0 0 -1.461 4.6h-5.089a9.934 9.934 0 0 0 1.33 8.14l.57.86v2h14.009l-.009-1.389a2 2 0 0 1 .336-1.119l.653-.98a6 6 0 0 0 1.011-3.329v-13.7a8 8 0 0 0 -2.343-5.656z" fill="#ffbcab"/><g fill="#231f20"><path d="m54.364 34.12-5.364-5.364v-25.756a1 1 0 0 0 -1-1h-30a1 1 0 0 0 -.707.293l-10 10a1 1 0 0 0 -.293.707v37a1 1 0 0 0 1 1h28.874a10.914 10.914 0 0 0 1.726 7.692l.4.609v1.699a1 1 0 0 0 2 0v-2a1 1 0 0 0 -.167-.552l-.572-.864a8.919 8.919 0 0 1 -1.356-6.584h3.41a7.32 7.32 0 0 0 1.438 3.05l.47.58a1 1 0 1 0 1.554-1.26l-.465-.574a5.3 5.3 0 0 1 .1-6.746 1 1 0 0 0 -.053-1.357l-5.249-5.247a2.021 2.021 0 0 1 -.009-2.833 2.069 2.069 0 0 1 2.842-.006l4.164 4.164a1 1 0 0 0 .462.462l2.444 2.444a1 1 0 0 0 1.414-1.414l-2.427-2.427v-8.252l3.95 3.95a6.954 6.954 0 0 1 2.05 4.95v13.7a4.987 4.987 0 0 1 -.84 2.774l-.654.981a2.991 2.991 0 0 0 -.5 1.677l.003 1.384a1 1 0 0 0 1 1h.005a1 1 0 0 0 .995-1l-.009-1.394a1 1 0 0 1 .168-.56l.653-.98a6.977 6.977 0 0 0 1.179-3.883v-13.7a8.939 8.939 0 0 0 -2.636-6.363zm-37.364-28.706v6.586h-6.586zm27.351 29.773a4.1 4.1 0 0 0 -5.661.009 4.03 4.03 0 0 0 0 5.661l4.641 4.643a7.243 7.243 0 0 0 -1.148 3.5h-33.183v-35h9a1 1 0 0 0 1-1v-9h28v33.836z"/><path d="m15 30v-1h4a1 1 0 0 0 0-2h-5a1 1 0 0 0 -1 1v6a1 1 0 0 0 1 1h6a1 1 0 0 0 0-2h-5z"/><path d="m22.293 26.293-4.293 4.293-1.293-1.293a1 1 0 1 0 -1.414 1.414l2 2a1 1 0 0 0 1.414 0l5-5a1 1 0 0 0 -1.414-1.414z"/><path d="m15 40v-1h4a1 1 0 0 0 0-2h-5a1 1 0 0 0 -1 1v6a1 1 0 0 0 1 1h6a1 1 0 0 0 0-2h-5z"/><path d="m22.293 36.293-4.293 4.293-1.293-1.293a1 1 0 1 0 -1.414 1.414l2 2a1 1 0 0 0 1.414 0l5-5a1 1 0 0 0 -1.414-1.414z"/><path d="m35 33h-9a1 1 0 0 0 0 2h9a1 1 0 0 0 0-2z"/><path d="m25 44a1 1 0 0 0 1 1h12a1 1 0 0 0 0-2h-12a1 1 0 0 0 -1 1z"/><path d="m42 29h-16a1 1 0 0 0 0 2h16a1 1 0 0 0 0-2z"/><path d="m35 39h-9a1 1 0 0 0 0 2h9a1 1 0 0 0 0-2z"/><path d="m31 19c-1.221 0-2-.592-2-1a1 1 0 0 0 -2 0c0 1.421 1.259 2.571 3 2.9v1.1a1 1 0 0 0 2 0v-1.1c1.741-.327 3-1.477 3-2.9 0-1.682-1.757-3-4-3-1.221 0-2-.592-2-1s.779-1 2-1 2 .592 2 1a1 1 0 0 0 2 0c0-1.421-1.259-2.571-3-2.9v-1.1a1 1 0 0 0 -2 0v1.1c-1.741.327-3 1.477-3 2.9 0 1.682 1.757 3 4 3 1.221 0 2 .592 2 1s-.779 1-2 1z"/><path d="m31 26a10 10 0 1 0 -10-10 10.011 10.011 0 0 0 10 10zm0-18a8 8 0 1 1 -8 8 8.009 8.009 0 0 1 8-8z"/></g></g></svg>