<?xml version="1.0"?>
<svg xmlns="http://www.w3.org/2000/svg" viewBox="0 0 64 64" width="512" height="512"><g id="Bill"><path d="M54.364,34.12,49,28.756V3a1,1,0,0,0-1-1H18a1,1,0,0,0-.707.293l-10,10A1,1,0,0,0,7,13V50a1,1,0,0,0,1,1H36.874A10.914,10.914,0,0,0,38.6,58.692l.4.609V61a1,1,0,0,0,2,0V59a1,1,0,0,0-.167-.552l-.572-.864A8.919,8.919,0,0,1,38.905,51h3.41a7.32,7.32,0,0,0,1.438,3.05l.47.58a1,1,0,1,0,1.554-1.26l-.465-.574a5.3,5.3,0,0,1,.1-6.746,1,1,0,0,0-.053-1.357L40.11,39.446a2.021,2.021,0,0,1-.009-2.833,2.069,2.069,0,0,1,2.842-.006l4.164,4.164a1,1,0,0,0,.462.462l2.444,2.444a1,1,0,0,0,1.414-1.414L49,39.836V31.584l3.95,3.95A6.954,6.954,0,0,1,55,40.484v13.7a4.987,4.987,0,0,1-.84,2.774l-.654.981a2.991,2.991,0,0,0-.5,1.677L53.009,61a1,1,0,0,0,1,1h.005a1,1,0,0,0,.995-1L55,59.606a1,1,0,0,1,.168-.56l.653-.98A6.977,6.977,0,0,0,57,54.183v-13.7A8.939,8.939,0,0,0,54.364,34.12ZM17,5.414V12H10.414ZM44.351,35.187a4.1,4.1,0,0,0-5.661.009,4.03,4.03,0,0,0,0,5.661L43.331,45.5A7.243,7.243,0,0,0,42.183,49H9V14h9a1,1,0,0,0,1-1V4H47V37.836Z"/><path d="M15,30V29h4a1,1,0,0,0,0-2H14a1,1,0,0,0-1,1v6a1,1,0,0,0,1,1h6a1,1,0,0,0,0-2H15Z"/><path d="M22.293,26.293,18,30.586l-1.293-1.293a1,1,0,1,0-1.414,1.414l2,2a1,1,0,0,0,1.414,0l5-5a1,1,0,0,0-1.414-1.414Z"/><path d="M15,40V39h4a1,1,0,0,0,0-2H14a1,1,0,0,0-1,1v6a1,1,0,0,0,1,1h6a1,1,0,0,0,0-2H15Z"/><path d="M22.293,36.293,18,40.586l-1.293-1.293a1,1,0,1,0-1.414,1.414l2,2a1,1,0,0,0,1.414,0l5-5a1,1,0,0,0-1.414-1.414Z"/><path d="M35,33H26a1,1,0,0,0,0,2h9a1,1,0,0,0,0-2Z"/><path d="M25,44a1,1,0,0,0,1,1H38a1,1,0,0,0,0-2H26A1,1,0,0,0,25,44Z"/><path d="M42,29H26a1,1,0,0,0,0,2H42a1,1,0,0,0,0-2Z"/><path d="M35,39H26a1,1,0,0,0,0,2h9a1,1,0,0,0,0-2Z"/><path d="M31,19c-1.221,0-2-.592-2-1a1,1,0,0,0-2,0c0,1.421,1.259,2.571,3,2.9V22a1,1,0,0,0,2,0V20.9c1.741-.327,3-1.477,3-2.9,0-1.682-1.757-3-4-3-1.221,0-2-.592-2-1s.779-1,2-1,2,.592,2,1a1,1,0,0,0,2,0c0-1.421-1.259-2.571-3-2.9V10a1,1,0,0,0-2,0v1.1c-1.741.327-3,1.477-3,2.9,0,1.682,1.757,3,4,3,1.221,0,2,.592,2,1S32.221,19,31,19Z"/><path d="M31,26A10,10,0,1,0,21,16,10.011,10.011,0,0,0,31,26ZM31,8a8,8,0,1,1-8,8A8.009,8.009,0,0,1,31,8Z"/></g></svg>
