<svg height="480pt" viewBox="0 0 480 480.00193" width="480pt" xmlns="http://www.w3.org/2000/svg"><path d="m304 80v-16h-56c-4.417969 0-8 3.582031-8 8v360c0 4.421875 3.582031 8 8 8h56v-16h-48v-176h48v-16h-48v-152zm0 0" fill="#4db7e5"/><g fill="#2d7dbf"><path d="m8 80h32v160h-32zm0 0"/><path d="m72 80h32v160h-32zm0 0"/><path d="m136 80h32v160h-32zm0 0"/></g><path d="m136 160v-32l-64 32v-32l-64 32v80h192v-112zm0 0" fill="#348fd9"/><path d="m40 192h112v80h-112zm0 0" fill="#ffb531"/><path d="m64 272h88v-80h-8zm0 0" fill="#ffa912"/><path d="m152 272h64v-40l-24-24h-40zm0 0" fill="#ffa912"/><path d="m200 272c0 8.839844-7.164062 16-16 16s-16-7.160156-16-16c0-8.835938 7.164062-16 16-16s16 7.164062 16 16zm0 0" fill="#3d4d63"/><path d="m88 272c0 8.839844-7.164062 16-16 16s-16-7.160156-16-16c0-8.835938 7.164062-16 16-16s16 7.164062 16 16zm0 0" fill="#3d4d63"/><path d="m120 272c0 8.839844-7.164062 16-16 16s-16-7.160156-16-16c0-8.835938 7.164062-16 16-16s16 7.164062 16 16zm0 0" fill="#3d4d63"/><path d="m400 8-72 24v88h144v-88zm0 0" fill="#348fd9"/><path d="m344 120h128v-88l-30-10zm0 0" fill="#3086cd"/><path d="m360 56h80v64h-80zm0 0" fill="#ffb531"/><path d="m360 56h80v16h-80zm0 0" fill="#f7a116"/><path d="m400 176-72 24v88h144v-88zm0 0" fill="#348fd9"/><path d="m344 288h128v-88l-30-10zm0 0" fill="#3086cd"/><path d="m360 224h80v64h-80zm0 0" fill="#ffb531"/><path d="m360 224h80v16h-80zm0 0" fill="#f7a116"/><path d="m400 360-72 24v88h144v-88zm0 0" fill="#348fd9"/><path d="m344 472h128v-88l-30-10zm0 0" fill="#3086cd"/><path d="m360 408h80v64h-80zm0 0" fill="#ffb531"/><path d="m360 408h80v16h-80zm0 0" fill="#f7a116"/><path d="m152 208h16v64h-16zm0 0" fill="#f7a116"/><path d="m480 200c0-3.441406-2.203125-6.5-5.472656-7.589844l-72-24c-1.640625-.546875-3.414063-.546875-5.054688 0l-72 24c-3.269531 1.089844-5.472656 4.148438-5.472656 7.589844v88c0 4.421875 3.582031 8 8 8h144c4.417969 0 8-3.578125 8-8zm-112 80v-48h64v48zm96 0h-16v-56c0-4.417969-3.582031-8-8-8h-80c-4.417969 0-8 3.582031-8 8v56h-16v-74.230469l64-21.335937 64 21.335937zm0 0"/><path d="m480 384c0-3.441406-2.203125-6.5-5.472656-7.589844l-72-24c-1.640625-.546875-3.414063-.546875-5.054688 0l-72 24c-3.269531 1.089844-5.472656 4.148438-5.472656 7.589844v88c0 4.421875 3.582031 8 8 8h144c4.417969 0 8-3.578125 8-8zm-112 80v-48h64v48zm96 0h-16v-56c0-4.417969-3.582031-8-8-8h-80c-4.417969 0-8 3.582031-8 8v56h-16v-74.230469l64-21.335937 64 21.335937zm0 0"/><path d="m480 32c0-3.441406-2.203125-6.5-5.472656-7.589844l-72-24c-1.640625-.546875-3.414063-.546875-5.054688 0l-72 24c-3.269531 1.089844-5.472656 4.148438-5.472656 7.589844v88c0 4.421875 3.582031 8 8 8h144c4.417969 0 8-3.578125 8-8zm-112 80v-48h64v48zm96 0h-16v-56c0-4.417969-3.582031-8-8-8h-80c-4.417969 0-8 3.582031-8 8v56h-16v-74.230469l64-21.335937 64 21.335937zm0 0"/><path d="m304 80v-16h-56c-4.417969 0-8 3.582031-8 8v360c0 4.421875 3.582031 8 8 8h56v-16h-48v-176h48v-16h-48v-152zm0 0"/><path d="m8 248h24v24c0 4.421875 3.582031 8 8 8h9.472656c2.617188 7.570312 8.867188 13.308594 16.632813 15.277344 7.761719 1.964844 15.992187-.105469 21.894531-5.515625 5.90625 5.410156 14.136719 7.480469 21.898438 5.515625 7.761718-1.96875 14.011718-7.707032 16.628906-15.277344h34.945312c3.339844 9.585938 12.378906 16.007812 22.527344 16.007812 10.152344 0 19.191406-6.421874 22.527344-16.007812h9.472656c4.417969 0 8-3.578125 8-8v-40c0-2.121094-.84375-4.152344-2.34375-5.652344l-13.65625-13.65625v-84.691406c.003906-2.769531-1.433594-5.347656-3.789062-6.804688-2.359376-1.460937-5.304688-1.59375-7.785157-.351562l-20.425781 10.214844v-51.058594c0-4.417969-3.582031-8-8-8h-32c-4.417969 0-8 3.582031-8 8v43.058594l-16 8v-51.058594c0-4.417969-3.582031-8-8-8h-32c-4.417969 0-8 3.582031-8 8v43.058594l-16 8v-51.058594c0-4.417969-3.582031-8-8-8h-32c-4.417969 0-8 3.582031-8 8v160c0 4.421875 3.582031 8 8 8zm40 16v-64h96v64h-17.472656c-2.617188-7.566406-8.867188-13.304688-16.628906-15.273438-7.761719-1.964843-15.992188.105469-21.898438 5.515626-5.902344-5.410157-14.132812-7.480469-21.894531-5.515626-7.765625 1.96875-14.015625 7.707032-16.632813 15.273438zm24 16c-4.417969 0-8-3.578125-8-8 0-4.417969 3.582031-8 8-8s8 3.582031 8 8c0 4.421875-3.582031 8-8 8zm32 0c-4.417969 0-8-3.578125-8-8 0-4.417969 3.582031-8 8-8s8 3.582031 8 8c0 4.421875-3.582031 8-8 8zm80 0c-4.417969 0-8-3.578125-8-8 0-4.417969 3.582031-8 8-8s8 3.582031 8 8c0 4.421875-3.582031 8-8 8zm24-16h-1.472656c-3.335938-9.582031-12.375-16.003906-22.527344-16.003906-10.148438 0-19.1875 6.421875-22.527344 16.003906h-1.472656v-48h28.6875l19.3125 19.3125zm-64-176h16v51.058594l-16 8zm-64 0h16v51.058594l-16 8zm-16 64v8c0 2.773438 1.433594 5.351562 3.792969 6.808594 2.359375 1.460937 5.304687 1.59375 7.785156.351562l52.421875-26.214844v19.054688c0 2.773438 1.433594 5.351562 3.792969 6.808594 2.359375 1.460937 5.304687 1.59375 7.785156.351562l52.421875-26.214844v59.054688h-32v-8c0-4.417969-3.582031-8-8-8h-112c-4.417969 0-8 3.582031-8 8v40h-16v-67.054688l48-24zm-32-64v51.058594l-16 8v-59.058594zm0 0"/></svg>