<svg height="512" viewBox="0 0 64 64" width="512" xmlns="http://www.w3.org/2000/svg"><g id="Plan"><circle cx="6" cy="17" fill="#b2fa09" r="2"/><circle cx="6" cy="37" fill="#ff3051" r="2"/><circle cx="5" cy="27" fill="#ffde55" r="2"/><circle cx="58" cy="37" fill="#b2fa09" r="2"/><path d="m51 5v52a4 4 0 0 1 -4 4h-39a5 5 0 0 0 5-5v-51a2.006 2.006 0 0 1 2-2h34a2.006 2.006 0 0 1 2 2z" fill="#fee9ab"/><rect fill="#c6c5ca" height="16" rx="2" width="24" x="20" y="19"/><circle cx="26" cy="25" fill="#fee9ab" r="2"/><path d="m51 5v52a4 4 0 0 1 -4 4h-4a4 4 0 0 0 4-4v-52a2.006 2.006 0 0 0 -2-2h4a2.006 2.006 0 0 1 2 2z" fill="#ffcd00"/><circle cx="59" cy="27" fill="#ffde55" r="2"/><path d="m59 44a2.006 2.006 0 0 1 2 2 2.015 2.015 0 0 1 -2 2h-2v-4z" fill="#ffde55"/><path d="m61 46a2.015 2.015 0 0 1 -2 2h-2a2.015 2.015 0 0 0 2-2 2.006 2.006 0 0 0 -2-2h2a2.006 2.006 0 0 1 2 2z" fill="#ffd422"/><circle cx="58" cy="17" fill="#ff3051" r="2"/><path d="m60 17a2 2 0 0 1 -3 1.73 2 2 0 0 0 0-3.46 2 2 0 0 1 3 1.73z" fill="#d80027"/><path d="m61 27a2 2 0 0 1 -3 1.73 2 2 0 0 0 0-3.46 2 2 0 0 1 3 1.73z" fill="#ffd422"/><path d="m60 37a2 2 0 0 1 -3 1.73 2 2 0 0 0 0-3.46 2 2 0 0 1 3 1.73z" fill="#7ed63e"/><path d="m8 17a2 2 0 0 1 -3 1.73 2 2 0 0 0 0-3.46 2 2 0 0 1 3 1.73z" fill="#7ed63e"/><path d="m7 27a2 2 0 0 1 -3 1.73 2 2 0 0 0 0-3.46 2 2 0 0 1 3 1.73z" fill="#ffd422"/><path d="m8 37a2 2 0 0 1 -3 1.73 2 2 0 0 0 0-3.46 2 2 0 0 1 3 1.73z" fill="#d80027"/><path d="m25 44h32v4h-32z" fill="#ff3051"/><path d="m53 44h4v4h-4z" fill="#d80027"/><path d="m44 21v12a2.006 2.006 0 0 1 -2 2h-4a2.006 2.006 0 0 0 2-2v-12a2.006 2.006 0 0 0 -2-2h4a2.006 2.006 0 0 1 2 2z" fill="#898890"/><circle cx="38" cy="25" fill="#fee9ab" r="2"/><path d="m40 25a2 2 0 0 1 -3 1.73 2 2 0 0 0 0-3.46 2 2 0 0 1 3 1.73z" fill="#ffe477"/><path d="m28 25a2 2 0 0 1 -3 1.73 2 2 0 0 0 0-3.46 2 2 0 0 1 3 1.73z" fill="#ffe477"/><path d="m38 17v2h-12v-2a2.006 2.006 0 0 1 2-2h8a2.006 2.006 0 0 1 2 2z" fill="#b2fa09"/><path d="m38 17v2h-4v-2a2.006 2.006 0 0 0 -2-2h4a2.006 2.006 0 0 1 2 2z" fill="#7ed63e"/><path d="m34 13v2h-4v-2a2.006 2.006 0 0 1 2-2 2.015 2.015 0 0 1 2 2z" fill="#ff3051"/><path d="m34 13v2h-2v-2a1.955 1.955 0 0 0 -.59-1.41 1.813 1.813 0 0 0 -.41-.32 2 2 0 0 1 1-.27 2.015 2.015 0 0 1 2 2z" fill="#d80027"/><path d="m25 44v4l-6-2z" fill="#ffc477"/><path d="m25 44v4l-2-.67v-2.66z" fill="#ffb655"/><path d="m13 51v5a5 5 0 0 1 -10 0v-5z" fill="#c6c5ca"/><path d="m13 51v5a5 5 0 0 1 -5 5 5.106 5.106 0 0 1 -2-.41 5.029 5.029 0 0 0 3-4.59v-5z" fill="#898890"/><path d="m26 28a3 3 0 1 0 -3-3 3 3 0 0 0 3 3zm0-4a1 1 0 1 1 -1 1 1 1 0 0 1 1-1z"/><path d="m38 28a3 3 0 1 0 -3-3 3 3 0 0 0 3 3zm0-4a1 1 0 1 1 -1 1 1 1 0 0 1 1-1z"/><path d="m29 30h6v2h-6z"/><path d="m25 30h2v2h-2z"/><path d="m37 30h2v2h-2z"/><path d="m59 43h-7v-5h3.184a3 3 0 1 0 0-2h-3.184v-8h4.184a3 3 0 1 0 0-2h-4.184v-8h3.184a3 3 0 1 0 0-2h-3.184v-11a3 3 0 0 0 -3-3h-34a3 3 0 0 0 -3 3v11h-3.184a3 3 0 1 0 0 2h3.184v8h-4.184a3 3 0 1 0 0 2h4.184v8h-3.184a3 3 0 1 0 0 2h3.184v12h-9a1 1 0 0 0 -1 1v5a6.006 6.006 0 0 0 6 6h39a5.006 5.006 0 0 0 5-5v-8h7a3 3 0 0 0 0-6zm-1-7a1 1 0 1 1 -1 1 1 1 0 0 1 1-1zm1-10a1 1 0 1 1 -1 1 1 1 0 0 1 1-1zm-1-10a1 1 0 1 1 -1 1 1 1 0 0 1 1-1zm-52 2a1 1 0 1 1 1-1 1 1 0 0 1 -1 1zm-1 10a1 1 0 1 1 1-1 1 1 0 0 1 -1 1zm1 10a1 1 0 1 1 1-1 1 1 0 0 1 -1 1zm18 8.613-1.838-.613 1.838-.613zm2-1.613h30v2h-30zm24-9h-1a1 1 0 0 1 -1-1v-2a3 3 0 0 0 -3-3v-2h5zm0-10h-5v-2a3 3 0 0 0 3-3v-2a1 1 0 0 1 1-1h1zm-36-21a1 1 0 0 1 1-1h34a1 1 0 0 1 1 1v11h-1a3 3 0 0 0 -3 3v2a1 1 0 0 1 -1 1v-1a3 3 0 0 0 -3-3h-3v-1a3 3 0 0 0 -3-3h-1v-1a3 3 0 0 0 -6 0v1h-1a3 3 0 0 0 -3 3v1h-3a3 3 0 0 0 -3 3v1a1 1 0 0 1 -1-1v-2a3 3 0 0 0 -3-3h-1zm19 9h-2v-1a1 1 0 0 1 2 0zm3 2a1 1 0 0 1 1 1v1h-10v-1a1 1 0 0 1 1-1zm6 4a1 1 0 0 1 1 1v12a1 1 0 0 1 -1 1h-20a1 1 0 0 1 -1-1v-12a1 1 0 0 1 1-1zm-28-2h1a1 1 0 0 1 1 1v2a3 3 0 0 0 3 3v2h-5zm0 10h5v2a3 3 0 0 0 -3 3v2a1 1 0 0 1 -1 1h-1zm-10 28v-4h8v4a4 4 0 0 1 -8 0zm46 1a3 3 0 0 1 -3 3h-34.54a5.969 5.969 0 0 0 1.54-4v-18h1a3 3 0 0 0 3-3v-2a1 1 0 0 1 1-1v1a3 3 0 0 0 3 3h20a3 3 0 0 0 3-3v-1a1 1 0 0 1 1 1v2a3 3 0 0 0 3 3h1v5h-25a1 1 0 0 0 -.316.051l-6 2a1 1 0 0 0 0 1.9l6 2a1 1 0 0 0 .316.049h25zm9-10h-1v-2h1a1 1 0 0 1 0 2z"/></g></svg>
