<svg height="512" viewBox="0 0 64 64" width="512" xmlns="http://www.w3.org/2000/svg"><g id="Plan"><path d="m26 28a3 3 0 1 0 -3-3 3 3 0 0 0 3 3zm0-4a1 1 0 1 1 -1 1 1 1 0 0 1 1-1z"/><path d="m38 28a3 3 0 1 0 -3-3 3 3 0 0 0 3 3zm0-4a1 1 0 1 1 -1 1 1 1 0 0 1 1-1z"/><path d="m29 30h6v2h-6z"/><path d="m25 30h2v2h-2z"/><path d="m37 30h2v2h-2z"/><path d="m59 43h-7v-5h3.184a3 3 0 1 0 0-2h-3.184v-8h4.184a3 3 0 1 0 0-2h-4.184v-8h3.184a3 3 0 1 0 0-2h-3.184v-11a3 3 0 0 0 -3-3h-34a3 3 0 0 0 -3 3v11h-3.184a3 3 0 1 0 0 2h3.184v8h-4.184a3 3 0 1 0 0 2h4.184v8h-3.184a3 3 0 1 0 0 2h3.184v12h-9a1 1 0 0 0 -1 1v5a6.006 6.006 0 0 0 6 6h39a5.006 5.006 0 0 0 5-5v-8h7a3 3 0 0 0 0-6zm-1-7a1 1 0 1 1 -1 1 1 1 0 0 1 1-1zm1-10a1 1 0 1 1 -1 1 1 1 0 0 1 1-1zm-1-10a1 1 0 1 1 -1 1 1 1 0 0 1 1-1zm-52 2a1 1 0 1 1 1-1 1 1 0 0 1 -1 1zm-1 10a1 1 0 1 1 1-1 1 1 0 0 1 -1 1zm1 10a1 1 0 1 1 1-1 1 1 0 0 1 -1 1zm18 8.613-1.838-.613 1.838-.613zm2-1.613h30v2h-30zm24-9h-1a1 1 0 0 1 -1-1v-2a3 3 0 0 0 -3-3v-2h5zm0-10h-5v-2a3 3 0 0 0 3-3v-2a1 1 0 0 1 1-1h1zm-36-21a1 1 0 0 1 1-1h34a1 1 0 0 1 1 1v11h-1a3 3 0 0 0 -3 3v2a1 1 0 0 1 -1 1v-1a3 3 0 0 0 -3-3h-3v-1a3 3 0 0 0 -3-3h-1v-1a3 3 0 0 0 -6 0v1h-1a3 3 0 0 0 -3 3v1h-3a3 3 0 0 0 -3 3v1a1 1 0 0 1 -1-1v-2a3 3 0 0 0 -3-3h-1zm19 9h-2v-1a1 1 0 0 1 2 0zm3 2a1 1 0 0 1 1 1v1h-10v-1a1 1 0 0 1 1-1zm6 4a1 1 0 0 1 1 1v12a1 1 0 0 1 -1 1h-20a1 1 0 0 1 -1-1v-12a1 1 0 0 1 1-1zm-28-2h1a1 1 0 0 1 1 1v2a3 3 0 0 0 3 3v2h-5zm0 10h5v2a3 3 0 0 0 -3 3v2a1 1 0 0 1 -1 1h-1zm-10 28v-4h8v4a4 4 0 0 1 -8 0zm46 1a3 3 0 0 1 -3 3h-34.54a5.969 5.969 0 0 0 1.54-4v-18h1a3 3 0 0 0 3-3v-2a1 1 0 0 1 1-1v1a3 3 0 0 0 3 3h20a3 3 0 0 0 3-3v-1a1 1 0 0 1 1 1v2a3 3 0 0 0 3 3h1v5h-25a1 1 0 0 0 -.316.051l-6 2a1 1 0 0 0 0 1.9l6 2a1 1 0 0 0 .316.049h25zm9-10h-1v-2h1a1 1 0 0 1 0 2z"/></g></svg>
