<svg id="Layer_35" enable-background="new 0 0 64 64" height="512" viewBox="0 0 64 64" width="512" xmlns="http://www.w3.org/2000/svg"><path d="m32 51c4.42 0 8 3.58 8 8v3h-4-8-4v-3c0-4.42 3.58-8 8-8z" fill="#b4dd7f"/><path d="m54 51c4.42 0 8 3.58 8 8v3h-4-8-4v-3c0-4.42 3.58-8 8-8z" fill="#b4dd7f"/><path d="m10 51c4.42 0 8 3.58 8 8v3h-4-8-4v-3c0-4.42 3.58-8 8-8z" fill="#b4dd7f"/><g fill="#f0d0b4"><circle cx="10" cy="46" r="5"/><circle cx="32" cy="46" r="5"/><circle cx="54" cy="46" r="5"/><path d="m39.38 26.38c-.38.38-.92.62-1.5.62-.56 0-1.1-.22-1.5-.62.4.4.62.94.62 1.5 0 .58-.24 1.12-.62 1.5s-.92.62-1.5.62c-.56 0-1.1-.22-1.5-.62l-.88-.88-.01-.01c.33-.38.51-.87.51-1.37 0-.58-.24-1.12-.62-1.5s-.92-.62-1.5-.62c-.56 0-1.1.22-1.5.62.4-.4.62-.94.62-1.5 0-.58-.24-1.12-.62-1.5s-.92-.62-1.5-.62c-.56 0-1.1.22-1.5.62.4-.4.62-.94.62-1.5 0-.58-.24-1.12-.62-1.5s-.92-.62-1.5-.62c-.56 0-1.1.22-1.5.62.4-.4.62-.94.62-1.5 0-.58-.24-1.12-.62-1.5s-.92-.62-1.5-.62c-.56 0-1.1.22-1.5.62l-.38.38-.51-.51c-1.6-1.6-2.49-3.75-2.49-6 0-2.35.95-4.47 2.49-6 1.53-1.54 3.65-2.49 6-2.49 1.13 0 2.23.22 3.24.64 1.02.43 1.96 1.05 2.76 1.85l.51.51-5.59 5.59c-.26.26-.41.62-.41 1 0 .78.63 1.41 1.41 1.41h3.76c.53 0 1.04-.21 1.42-.59l1.41-1.41h1.17c.91 0 1.79-.18 2.61-.52l.72.02 6 6 .88.88c.4.4.62.94.62 1.5 0 .58-.24 1.12-.62 1.5s-.92.62-1.5.62c-.56 0-1.1-.22-1.5-.62.4.4.62.94.62 1.5 0 .58-.24 1.12-.62 1.5s-.92.62-1.5.62c-.56 0-1.1-.22-1.5-.62.4.4.62.94.62 1.5 0 .58-.24 1.12-.62 1.5z"/><path d="m37.78 10.48c-.82.34-1.7.52-2.61.52h-1.17l-1.41 1.41c-.38.38-.89.59-1.42.59h-3.76c-.78 0-1.41-.63-1.41-1.41 0-.38.15-.74.41-1l5.59-5.59.51-.51c.8-.8 1.74-1.42 2.76-1.85 1.01-.42 2.11-.64 3.24-.64 2.35 0 4.47.95 6 2.49 1.54 1.53 2.49 3.65 2.49 6 0 2.25-.89 4.4-2.49 6l-.01.01-6-6z"/><path d="m32.38 25.62c.38.38.62.92.62 1.5 0 .5-.18.99-.51 1.37-.03.05-.07.09-.11.13l-.38.38-.38.38c-.4.4-.94.62-1.5.62-.58 0-1.12-.24-1.5-.62s-.62-.92-.62-1.5c0-.56.22-1.1.62-1.5l.76-.76c.4-.4.94-.62 1.5-.62.58 0 1.12.24 1.5.62z"/><path d="m26.38 19.62c.38.38.62.92.62 1.5 0 .56-.22 1.1-.62 1.5l-.76.76c-.4.4-.94.62-1.5.62-.58 0-1.12-.24-1.5-.62s-.62-.92-.62-1.5c0-.56.22-1.1.62-1.5l.76-.76c.4-.4.94-.62 1.5-.62.58 0 1.12.24 1.5.62z"/><path d="m29.38 22.62c.38.38.62.92.62 1.5 0 .56-.22 1.1-.62 1.5l-.76.76c-.4.4-.94.62-1.5.62-.58 0-1.12-.24-1.5-.62s-.62-.92-.62-1.5c0-.56.22-1.1.62-1.5l.76-.76c.4-.4.94-.62 1.5-.62.58 0 1.12.24 1.5.62z"/><path d="m23.38 16.62c.38.38.62.92.62 1.5 0 .56-.22 1.1-.62 1.5l-.76.76c-.4.4-.94.62-1.5.62-.58 0-1.12-.24-1.5-.62s-.62-.92-.62-1.5c0-.56.22-1.1.62-1.5l.38-.38.38-.38c.4-.4.94-.62 1.5-.62.58 0 1.12.24 1.5.62z"/></g><path d="m57.626 50.769c1.439-1.097 2.374-2.824 2.374-4.769 0-2.967-2.167-5.431-5-5.91v-1.09c0-2.757-2.243-5-5-5h-17v-3.644c.54.411 1.189.644 1.879.644 1.684 0 3.051-1.342 3.11-3.011 1.632-.058 2.942-1.368 3-3 1.632-.058 2.942-1.368 3-3 1.669-.059 3.011-1.427 3.011-3.11 0-.834-.325-1.618-.914-2.207l-.208-.208c1.374-1.686 2.122-3.774 2.122-5.979 0-5.23-4.255-9.485-9.485-9.485-2.447 0-4.746.928-6.515 2.604-1.769-1.676-4.068-2.604-6.515-2.604-5.23 0-9.485 4.255-9.485 9.485 0 2.457.935 4.766 2.625 6.538-.399.536-.625 1.176-.625 1.856 0 1.684 1.342 3.051 3.011 3.11.058 1.632 1.368 2.942 3 3 .058 1.632 1.368 2.942 3 3 .059 1.669 1.427 3.011 3.11 3.011.304 0 .596-.057.879-.14v3.14h-17c-2.757 0-5 2.243-5 5v1.09c-2.833.479-5 2.943-5 5.91 0 1.945.935 3.672 2.374 4.769-3.16 1.398-5.374 4.559-5.374 8.231v4h18v-4c0-3.672-2.214-6.833-5.374-8.231 1.439-1.097 2.374-2.824 2.374-4.769 0-2.967-2.167-5.431-5-5.91v-1.09c0-1.654 1.346-3 3-3h17v4.09c-2.833.478-5 2.942-5 5.91 0 1.945.935 3.672 2.374 4.769-3.16 1.398-5.374 4.559-5.374 8.231v4h18v-4c0-3.672-2.214-6.833-5.374-8.231 1.439-1.097 2.374-2.824 2.374-4.769 0-2.967-2.167-5.431-5-5.91v-4.09h17c1.654 0 3 1.346 3 3v1.09c-2.833.478-5 2.942-5 5.91 0 1.945.935 3.672 2.374 4.769-3.16 1.398-5.374 4.559-5.374 8.231v4h18v-4c0-3.672-2.214-6.833-5.374-8.231zm-19.111-47.769c4.127 0 7.485 3.358 7.485 7.485 0 1.669-.549 3.25-1.55 4.55l-4.598-4.598c.298-.224.587-.462.856-.73l-1.414-1.414c-1.102 1.101-2.565 1.707-4.123 1.707h-1.585l-1.707 1.707c-.189.189-.441.293-.708.293h-3.757c-.228 0-.414-.186-.414-.414 0-.109.044-.216.121-.293l6.101-6.101c1.414-1.413 3.293-2.192 5.293-2.192zm-13.03 0c1.908 0 3.702.716 5.091 2.009l-4.87 4.87c-.455.455-.706 1.062-.706 1.707 0 1.331 1.083 2.414 2.414 2.414h3.757c.801 0 1.555-.312 2.122-.879l1.121-1.121h.757c.999 0 1.967-.191 2.869-.546l6.632 6.632c.211.212.328.493.328.793 0 .618-.503 1.121-1.121 1.121-.3 0-.581-.117-.793-.328l-2.379-2.379-1.414 1.414 2.379 2.379c.211.212.328.493.328.793 0 .618-.503 1.121-1.121 1.121-.3 0-.581-.117-.793-.328l-2.379-2.379-1.414 1.414 2.379 2.379c.211.212.328.493.328.793 0 .618-.503 1.121-1.121 1.121-.3 0-.581-.117-.793-.328l-2.379-2.379-1.414 1.414 2.379 2.379c.211.212.328.493.328.793 0 .618-.503 1.121-1.121 1.121-.3 0-.581-.117-.793-.328l-.334-.334c.161-.38.248-.791.248-1.217 0-1.684-1.342-3.051-3.011-3.11-.058-1.632-1.368-2.942-3-3-.058-1.632-1.368-2.942-3-3-.059-1.669-1.427-3.011-3.11-3.011-.673 0-1.307.22-1.838.611-1.314-1.394-2.041-3.202-2.041-5.126 0-4.127 3.358-7.485 7.485-7.485zm-5.485 15.879c0-.3.117-.581.328-.793l.758-.758c.212-.211.493-.328.793-.328.618 0 1.121.503 1.121 1.121 0 .3-.117.581-.328.793l-.758.758c-.212.211-.493.328-.793.328-.618 0-1.121-.503-1.121-1.121zm3 3c0-.3.117-.581.328-.793l.758-.758c.212-.211.493-.328.793-.328.618 0 1.121.503 1.121 1.121 0 .3-.117.581-.328.793l-.758.758c-.212.211-.493.328-.793.328-.618 0-1.121-.503-1.121-1.121zm3 3c0-.3.117-.581.328-.793l.758-.758c.212-.211.493-.328.793-.328.618 0 1.121.503 1.121 1.121 0 .3-.117.581-.328.793l-.758.758c-.212.211-.493.328-.793.328-.618 0-1.121-.503-1.121-1.121zm4.121 4.121c-.618 0-1.121-.503-1.121-1.121 0-.3.117-.581.328-.793l.758-.758c.212-.211.493-.328.793-.328.618 0 1.121.503 1.121 1.121 0 .3-.117.581-.328.793l-.758.758c-.212.211-.493.328-.793.328zm-13.121 30v2h-2v-4h-2v4h-6v-4h-2v4h-2v-2c0-3.86 3.14-7 7-7s7 3.14 7 7zm-3-13c0 2.206-1.794 4-4 4s-4-1.794-4-4 1.794-4 4-4 4 1.794 4 4zm25 13v2h-2v-4h-2v4h-6v-4h-2v4h-2v-2c0-3.86 3.14-7 7-7s7 3.14 7 7zm-3-13c0 2.206-1.794 4-4 4s-4-1.794-4-4 1.794-4 4-4 4 1.794 4 4zm14 0c0-2.206 1.794-4 4-4s4 1.794 4 4-1.794 4-4 4-4-1.794-4-4zm11 15h-2v-4h-2v4h-6v-4h-2v4h-2v-2c0-3.86 3.14-7 7-7s7 3.14 7 7z"/><path d="m38 38h2v2h-2z"/><path d="m42 38h2v2h-2z"/><path d="m46 38h2v2h-2z"/><path d="m16 38h2v2h-2z"/><path d="m20 38h2v2h-2z"/><path d="m24 38h2v2h-2z"/></svg>