<svg xmlns="http://www.w3.org/2000/svg" width="45.744" height="45.744" viewBox="0 0 45.744 45.744"><g transform="matrix(0.259, 0.966, -0.966, 0.259, 36.077, 0)"><path d="M0,0H37.35V37.35H0Z" fill="none"/><circle cx="2.334" cy="2.334" r="2.334" transform="translate(19.453 13.228)" fill="#0074e0"/><circle cx="1.186" cy="1.186" r="1.186" transform="translate(20.75 26.678)" fill="#0074e0"/><circle cx="2.334" cy="2.334" r="2.334" transform="translate(19.453 19.453)" fill="#0074e0"/><ellipse cx="1.186" cy="1.779" rx="1.186" ry="1.779" transform="translate(20.75 7.707)" fill="#0074e0"/><path d="M3.278,13.394a.778.778,0,1,0,.778.778A.771.771,0,0,0,3.278,13.394Zm17.9-10.116a.778.778,0,1,0-.778.778A.771.771,0,0,0,21.175,3.278Zm10.116,17.9a.778.778,0,1,0-.778-.778A.771.771,0,0,0,31.29,21.175Z" transform="translate(1.391 1.391)" fill="#0074e0"/><circle cx="1.186" cy="1.186" r="1.186" transform="translate(26.678 26.678)" fill="#0074e0"/><path d="M13.5,27.4a.778.778,0,1,0,.778-.778A.771.771,0,0,0,13.5,27.4Zm11.672-16.34a.778.778,0,1,0-.778-.778A.771.771,0,0,0,25.172,11.056Z" transform="translate(7.509 5.284)" fill="#0074e0"/><circle cx="1.186" cy="1.186" r="1.186" transform="translate(26.678 20.75)" fill="#0074e0"/><ellipse cx="1.186" cy="1.779" rx="1.186" ry="1.779" transform="translate(26.678 7.707)" fill="#0074e0"/><ellipse cx="1.779" cy="1.186" rx="1.779" ry="1.186" transform="translate(7.707 26.678)" fill="#0074e0"/><ellipse cx="1.779" cy="1.186" rx="1.779" ry="1.186" transform="translate(7.707 20.75)" fill="#0074e0"/><path d="M4.056,14.278a.778.778,0,1,0-.778.778A.771.771,0,0,0,4.056,14.278Z" transform="translate(1.391 7.509)" fill="#0074e0"/><circle cx="1.779" cy="1.779" r="1.779" transform="translate(13.636 7.707)" fill="#0074e0"/><circle cx="1.779" cy="1.779" r="1.779" transform="translate(7.707 13.636)" fill="#0074e0"/><circle cx="1.779" cy="1.779" r="1.779" transform="translate(7.707 7.707)" fill="#0074e0"/><path d="M9.5,21.278a.778.778,0,1,0,.778-.778A.771.771,0,0,0,9.5,21.278Z" transform="translate(5.284 11.403)" fill="#0074e0"/><ellipse cx="1.779" cy="1.186" rx="1.779" ry="1.186" transform="translate(13.636 26.678)" fill="#0074e0"/><path d="M11.056,3.278a.778.778,0,1,0-.778.778A.771.771,0,0,0,11.056,3.278Z" transform="translate(5.284 1.391)" fill="#0074e0"/><circle cx="2.334" cy="2.334" r="2.334" transform="translate(13.228 19.453)" fill="#0074e0"/><circle cx="2.334" cy="2.334" r="2.334" transform="translate(13.228 13.228)" fill="#0074e0"/><ellipse cx="1.186" cy="1.779" rx="1.186" ry="1.779" transform="translate(26.678 13.636)" fill="#0074e0"/></g></svg>